<?xml version="1.0" encoding="UTF-8" standalone="no"?>
<svg
   xmlns:dc="http://purl.org/dc/elements/1.1/"
   xmlns:cc="http://creativecommons.org/ns#"
   xmlns:rdf="http://www.w3.org/1999/02/22-rdf-syntax-ns#"
   xmlns:svg="http://www.w3.org/2000/svg"
   xmlns="http://www.w3.org/2000/svg"
   viewBox="0 0 2345.9067 345.02667"
   height="345.02667"
   width="2345.9067"
   xml:space="preserve"
   id="svg2"
   version="1.1"><metadata
     id="metadata8"><rdf:RDF><cc:Work
         rdf:about=""><dc:format>image/svg+xml</dc:format><dc:type
           rdf:resource="http://purl.org/dc/dcmitype/StillImage" /></cc:Work></rdf:RDF></metadata><defs
     id="defs6" /><g
     transform="matrix(1.3333333,0,0,-1.3333333,0,345.02667)"
     id="g10"><g
       transform="scale(0.1)"
       id="g12"><g
         transform="scale(1.07939)"
         id="g14"><path
           id="path16"
           style="fill:#97d42f;fill-opacity:1;fill-rule:nonzero;stroke:none"
           d="m 14284.2,1043.07 h 1744 c 8.9,0 17.8,-0.43 26.7,-1.3 8.9,-0.87 17.7,-2.19 26.4,-3.92 8.8,-1.74 17.4,-3.9 25.9,-6.5 8.5,-2.58 16.9,-5.57 25.1,-8.99 8.3,-3.4 16.3,-7.21 24.2,-11.42 7.8,-4.19 15.5,-8.77 22.9,-13.716 7.4,-4.947 14.5,-10.256 21.4,-15.908 6.9,-5.65 13.5,-11.625 19.8,-17.925 6.3,-6.301 12.2,-12.898 17.9,-19.789 5.6,-6.883 11,-14.027 15.9,-21.438 4.9,-7.412 9.6,-15.048 13.7,-22.905 4.2,-7.853 8.1,-15.905 11.4,-24.131 3.5,-8.237 6.5,-16.622 9,-25.137 2.6,-8.53 4.8,-17.165 6.5,-25.901 1.8,-8.747 3.1,-17.548 4,-26.415 0.8,-8.866 1.3,-17.751 1.3,-26.664 0,-8.91 -0.5,-17.805 -1.3,-26.661 -0.9,-8.877 -2.2,-17.679 -4,-26.415 -1.7,-8.736 -3.9,-17.371 -6.5,-25.904 -2.5,-8.523 -5.5,-16.897 -9,-25.134 -3.3,-8.226 -7.2,-16.278 -11.4,-24.135 -4.1,-7.856 -8.8,-15.489 -13.7,-22.9 -4.9,-7.412 -10.3,-14.556 -15.9,-21.446 -5.7,-6.887 -11.6,-13.481 -17.9,-19.781 -6.3,-6.301 -12.9,-12.276 -19.8,-17.929 -6.9,-5.649 -14,-10.958 -21.4,-15.905 -7.4,-4.947 -15.1,-9.525 -22.9,-13.719 -7.9,-4.209 -15.9,-8.016 -24.2,-11.426 -8.2,-3.401 -16.6,-6.401 -25.1,-8.985 -8.5,-2.595 -17.1,-4.752 -25.9,-6.486 -8.7,-1.751 -17.5,-3.047 -26.4,-3.93 -8.9,-0.868 -17.8,-1.306 -26.7,-1.306 h -1744 c -8.9,0 -17.8,0.438 -26.7,1.306 -8.8,0.883 -17.7,2.179 -26.4,3.93 -8.7,1.734 -17.3,3.891 -25.8,6.486 -8.6,2.584 -17,5.584 -25.2,8.985 -8.3,3.41 -16.3,7.217 -24.1,11.426 -7.9,4.194 -15.6,8.772 -23,13.719 -7.4,4.947 -14.5,10.256 -21.4,15.905 -6.8,5.653 -13.5,11.628 -19.8,17.929 -6.3,6.3 -12.2,12.894 -17.9,19.781 -5.6,6.89 -10.9,14.034 -15.9,21.446 -4.9,7.411 -9.6,15.044 -13.7,22.9 -4.2,7.857 -8,15.909 -11.4,24.135 -3.4,8.237 -6.4,16.611 -9,25.134 -2.6,8.533 -4.7,17.168 -6.5,25.904 -1.8,8.736 -3.1,17.538 -3.9,26.415 -0.9,8.856 -1.4,17.751 -1.4,26.661 0,8.913 0.5,17.798 1.4,26.664 0.8,8.867 2.1,17.668 3.9,26.415 1.8,8.736 3.9,17.371 6.5,25.901 2.6,8.515 5.6,16.9 9,25.137 3.4,8.226 7.2,16.278 11.4,24.131 4.1,7.857 8.8,15.493 13.7,22.905 5,7.411 10.3,14.555 15.9,21.438 5.7,6.891 11.6,13.488 17.9,19.789 6.3,6.3 13,12.275 19.8,17.925 6.9,5.652 14,10.961 21.4,15.908 7.4,4.946 15.1,9.526 23,13.716 7.8,4.21 15.8,8.02 24.1,11.42 8.2,3.42 16.6,6.41 25.2,8.99 8.5,2.6 17.1,4.76 25.8,6.5 8.7,1.73 17.6,3.05 26.4,3.92 8.9,0.87 17.8,1.3 26.7,1.3" /></g><path
         id="path18"
         style="fill:#1a3c5c;fill-opacity:1;fill-rule:nonzero;stroke:none"
         d="m 15677.7,749.539 c 21.4,0 33.4,11.031 33.4,30.52 0,21.75 -14.9,36.043 -38.3,36.043 h -12 v -66.563 z m -4.9,97.41 c 20.4,0 33.8,12.012 33.8,30.52 0,8.121 -3,15.261 -8.2,20.14 -5.5,4.86 -12.3,6.813 -25,6.813 h -12.6 v -57.473 z m -45.5,88.321 h 50 c 40.6,0 63.4,-19.809 63.4,-54.872 0,-25.66 -11.4,-40.918 -35.8,-48.386 29.3,-8.442 40.9,-23.383 40.9,-51.953 0,-38.309 -24,-61.368 -64.2,-61.368 h -54.3 V 935.27" /><path
         id="path20"
         style="fill:#1a3c5c;fill-opacity:1;fill-rule:nonzero;stroke:none"
         d="m 15812.7,788.172 c 0,-17.203 1,-23.043 4.2,-29.543 3.9,-7.149 12,-11.688 21.4,-11.688 9.5,0 17.6,4.539 21.5,11.688 3.6,6.82 4.2,12.012 4.2,29.543 v 77.609 c 0,17.539 -0.6,22.731 -4.2,29.551 -3.9,7.137 -12,11.688 -21.5,11.688 -9.4,0 -17.5,-4.551 -21.4,-11.688 -3.2,-6.492 -4.2,-12.332 -4.2,-29.551 z m 84.7,-0.641 c 0,-24.359 -3.5,-38.972 -12.3,-51.312 -9.7,-13.629 -26,-20.778 -46.8,-20.778 -20.7,0 -37,7.149 -46.7,20.778 -8.8,12.34 -12.3,26.953 -12.3,51.312 v 78.899 c 0,24.359 3.5,38.968 12.3,51.3 9.7,13.649 26,20.782 46.7,20.782 20.8,0 37.1,-7.133 46.8,-20.782 8.8,-12.332 12.3,-26.941 12.3,-51.3 v -78.899" /><path
         id="path22"
         style="fill:#1a3c5c;fill-opacity:1;fill-rule:nonzero;stroke:none"
         d="m 15965.3,788.172 c 0,-17.203 1,-23.043 4.2,-29.543 3.9,-7.149 12,-11.688 21.4,-11.688 9.5,0 17.6,4.539 21.5,11.688 3.5,6.82 4.2,12.012 4.2,29.543 v 77.609 c 0,17.539 -0.7,22.731 -4.2,29.551 -3.9,7.137 -12,11.688 -21.5,11.688 -9.4,0 -17.5,-4.551 -21.4,-11.688 -3.2,-6.492 -4.2,-12.332 -4.2,-29.551 z m 84.7,-0.641 c 0,-24.359 -3.5,-38.972 -12.3,-51.312 -9.7,-13.629 -26,-20.778 -46.8,-20.778 -20.7,0 -37,7.149 -46.7,20.778 -8.8,12.34 -12.4,26.953 -12.4,51.312 v 78.899 c 0,24.359 3.6,38.968 12.4,51.3 9.7,13.649 26,20.782 46.7,20.782 20.8,0 37.1,-7.133 46.8,-20.782 8.8,-12.332 12.3,-26.941 12.3,-51.3 v -78.899" /><path
         id="path24"
         style="fill:#1a3c5c;fill-opacity:1;fill-rule:nonzero;stroke:none"
         d="m 16120.1,845.648 48.4,89.622 h 36.1 l -45.8,-78.579 52.3,-138 h -36.7 l -36.4,102.289 -17.9,-30.21 v -72.079 h -33.4 V 935.27 h 33.4 v -89.622" /><g
         transform="scale(1.0056)"
         id="g26"><path
           id="path28"
           style="fill:#1a3c5c;fill-opacity:1;fill-rule:nonzero;stroke:none"
           d="m 16234.8,714.693 h -33.2 v 215.373 h 98.4 V 899.39 h -65.2 v -58.117 h 48.4 v -30.679 h -48.4 v -95.901" /></g><g
         transform="scale(1.00924)"
         id="g30"><path
           id="path32"
           style="fill:#1a3c5c;fill-opacity:1;fill-rule:nonzero;stroke:none"
           d="m 16300,712.112 h -33.1 v 214.595 h 33.1 V 712.112" /></g><g
         transform="scale(1.01825)"
         id="g34"><path
           id="path36"
           style="fill:#1a3c5c;fill-opacity:1;fill-rule:nonzero;stroke:none"
           d="m 16258.6,705.813 h -32.9 v 182.403 h -41.2 v 30.295 h 115.5 v -30.295 h -41.4 V 705.813" /></g><g
         transform="scale(1.02681)"
         id="g38"><path
           id="path40"
           style="fill:#1a3c5c;fill-opacity:1;fill-rule:nonzero;stroke:none"
           d="m 16258.9,699.927 h -32.6 v 180.881 h -40.8 v 30.042 h 114.5 v -30.042 h -41.1 V 699.927" /></g><g
         transform="scale(1.03065)"
         id="g42"><path
           id="path44"
           style="fill:#1a3c5c;fill-opacity:1;fill-rule:nonzero;stroke:none"
           d="m 16300,697.318 h -32.4 v 210.138 h 32.4 V 697.318" /></g><g
         transform="scale(1.04041)"
         id="g46"><path
           id="path48"
           style="fill:#1a3c5c;fill-opacity:1;fill-rule:nonzero;stroke:none"
           d="m 16300,690.776 h -28.7 l -56.2,138.569 V 690.776 h -30.5 v 208.166 h 32.5 l 52.3,-129.516 v 129.516 h 30.6 V 690.776" /></g><g
         transform="scale(1.04989)"
         id="g50"><path
           id="path52"
           style="fill:#1a3c5c;fill-opacity:1;fill-rule:nonzero;stroke:none"
           d="M 16300,786.913 V 684.54 h -16.4 l -5.8,17.628 c -10.6,-14.849 -22,-20.724 -38.7,-20.724 -18.8,0 -34.6,8.971 -42.6,24.125 -6.9,13.298 -9.1,26.603 -9.1,55.043 v 56.911 c 0,32.786 2.5,44.539 12.1,57.227 9,12.371 24.8,19.165 43.6,19.165 22.6,0 39.3,-9.585 48.6,-27.518 5.3,-10.213 7.4,-22.889 7.4,-42.683 h -31.9 c 0,28.452 -7,40.205 -24.3,40.205 -8.4,0 -15.6,-3.713 -18.9,-10.515 -3.7,-6.801 -4.7,-12.992 -4.7,-29.69 v -63.102 c 0,-17 1,-25.963 3.5,-33.705 3.3,-9.585 11.4,-15.459 21.6,-15.459 16.6,0 23.8,12.058 23.8,40.822 v 8.342 h -26.3 v 26.301 h 58.1" /></g><path
         id="path54"
         style="fill:#1a3c5c;fill-opacity:1;fill-rule:nonzero;stroke:none"
         d="M 3981.05,767.262 H 3761.42 V 1922.03 h -217.37 v 138.13 c 122.27,52.07 253.6,147.17 307.94,217.36 h 129.06 V 767.262" /><path
         id="path56"
         style="fill:#1a3c5c;fill-opacity:1;fill-rule:nonzero;stroke:none"
         d="m 4411.23,1199.73 c 0,-104.15 4.53,-133.59 27.17,-176.61 24.91,-45.28 72.46,-70.19 133.59,-70.19 58.87,0 106.42,24.91 131.33,70.19 22.64,43.02 27.17,70.2 27.17,176.61 v 645.32 c 0,106.41 -4.53,133.59 -27.17,176.61 -24.91,45.28 -72.46,70.2 -131.33,70.2 -61.13,0 -108.68,-24.92 -133.59,-70.2 -22.64,-43.02 -27.17,-70.2 -27.17,-176.61 z m 538.9,47.55 c 0,-172.08 -22.65,-271.71 -79.26,-357.749 -63.4,-92.832 -169.81,-144.91 -298.88,-144.91 -131.32,0 -237.74,52.078 -301.14,144.91 -56.61,86.039 -79.25,187.939 -79.25,357.749 v 550.22 c 0,169.81 22.64,271.71 79.25,357.75 63.4,92.84 169.82,144.91 301.14,144.91 129.07,0 235.48,-52.07 298.88,-144.91 56.61,-86.04 79.26,-185.67 79.26,-357.75 v -550.22" /><path
         id="path58"
         style="fill:#1a3c5c;fill-opacity:1;fill-rule:nonzero;stroke:none"
         d="m 5339.54,1199.73 c 0,-104.15 4.53,-133.59 27.17,-176.61 24.91,-45.28 72.46,-70.19 133.6,-70.19 58.86,0 106.41,24.91 131.32,70.19 22.64,43.02 27.17,70.2 27.17,176.61 v 645.32 c 0,106.41 -4.53,133.59 -27.17,176.61 -24.91,45.28 -72.46,70.2 -131.32,70.2 -61.14,0 -108.69,-24.92 -133.6,-70.2 -22.64,-43.02 -27.17,-70.2 -27.17,-176.61 z m 538.9,47.55 c 0,-172.08 -22.65,-271.71 -79.26,-357.749 -63.4,-92.832 -169.81,-144.91 -298.87,-144.91 -131.33,0 -237.75,52.078 -301.15,144.91 -56.61,86.039 -79.25,187.939 -79.25,357.749 v 550.22 c 0,169.81 22.64,271.71 79.25,357.75 63.4,92.84 169.82,144.91 301.15,144.91 129.06,0 235.47,-52.07 298.87,-144.91 56.61,-86.04 79.26,-185.67 79.26,-357.75 v -550.22" /><path
         id="path60"
         style="fill:#1a3c5c;fill-opacity:1;fill-rule:nonzero;stroke:none"
         d="m 3390.57,1926.38 h -86.95 c 10.87,-29.9 14.49,-50.73 14.49,-76.09 0,-31.7 -7.25,-52.53 -28.09,-82.42 47.11,-17.22 51.63,-19.02 62.5,-19.02 24.46,0 39.86,27.17 39.86,71.55 h 79.7 c 0,-101.45 -39.85,-164.85 -102.35,-164.85 -24.45,0 -44.38,6.34 -92.38,28.99 -19.93,9.96 -27.17,11.78 -36.23,11.78 -18.12,0 -37.14,-13.6 -58.88,-43.48 l -57.06,57.97 c 24.45,44.37 54.34,67.93 86.95,71.55 16.31,23.55 22.65,40.75 22.65,66.12 0,23.55 -5.44,41.66 -22.65,77.9 h -76.99 v 55.25 h 57.07 c -30.8,86.05 -36.23,105.98 -36.23,143.1 0,92.4 57.97,150.37 149.44,150.37 60.7,0 106.89,-26.27 130.43,-74.28 11.78,-25.36 17.22,-53.44 17.22,-98.72 h -86.95 c -1.82,63.4 -19.03,89.67 -60.7,89.67 -36.23,0 -59.77,-25.36 -59.77,-64.32 0,-30.79 4.53,-48.91 34.41,-129.52 l 5.44,-16.3 h 105.07 v -55.25" /><path
         id="path62"
         style="fill:#1a3c5c;fill-opacity:1;fill-rule:nonzero;stroke:none"
         d="m 6386.72,1304.16 h -148.05 v 958.73 h 438.4 v -136.55 h -290.35 v -258.73 h 215.61 v -136.55 h -215.61 v -426.9" /><path
         id="path64"
         style="fill:#1a3c5c;fill-opacity:1;fill-rule:nonzero;stroke:none"
         d="m 7273.59,2262.89 v -649.7 c 0,-120.73 -14.38,-182.54 -54.62,-237.17 -41.69,-56.05 -112.12,-86.24 -198.36,-86.24 -87.69,0 -158.12,30.19 -199.8,86.24 -40.25,54.63 -54.62,116.44 -54.62,237.17 v 649.7 h 148.05 v -674.13 c 0,-113.56 30.19,-159.55 106.37,-159.55 74.74,0 104.92,45.99 104.92,159.55 v 674.13 h 148.06" /><path
         id="path66"
         style="fill:#1a3c5c;fill-opacity:1;fill-rule:nonzero;stroke:none"
         d="m 7566.83,1440.71 h 294.66 v -136.55 h -442.71 v 958.73 h 148.05 v -822.18" /><path
         id="path68"
         style="fill:#1a3c5c;fill-opacity:1;fill-rule:nonzero;stroke:none"
         d="m 8101.56,1440.71 h 294.65 v -136.55 h -442.7 v 958.73 h 148.05 v -822.18" /><path
         id="path70"
         style="fill:#1a3c5c;fill-opacity:1;fill-rule:nonzero;stroke:none"
         d="m 8930.94,1440.71 c 94.87,0 148.05,48.87 148.05,135.11 0,96.31 -66.13,159.55 -169.61,159.55 h -53.18 v -294.66 z m -21.56,431.21 c 90.55,0 149.47,53.19 149.47,135.12 0,35.93 -12.92,67.56 -35.91,89.11 -24.46,21.56 -54.63,30.19 -110.69,30.19 h -56.05 v -254.42 z m -201.23,390.97 h 221.35 c 179.67,0 280.29,-87.68 280.29,-242.92 0,-113.54 -50.31,-181.1 -158.12,-214.17 129.37,-37.36 181.11,-103.49 181.11,-229.98 0,-169.61 -106.37,-271.66 -284.59,-271.66 h -240.04 v 958.73" /><path
         id="path72"
         style="fill:#1a3c5c;fill-opacity:1;fill-rule:nonzero;stroke:none"
         d="m 9606.53,2078.91 -77.62,-429.78 h 156.68 z m -100.6,-566.33 -38.81,-208.42 h -145.18 l 183.99,958.73 h 202.67 l 194.04,-958.73 h -152.36 l -40.25,208.42 h -204.1" /><path
         id="path74"
         style="fill:#1a3c5c;fill-opacity:1;fill-rule:nonzero;stroke:none"
         d="m 10512.1,1779.93 v -475.77 h -76.2 l -27.3,81.93 c -48.9,-68.99 -102,-96.31 -179.7,-96.31 -87.6,0 -160.9,41.69 -198.3,112.12 -31.65,61.81 -41.71,123.62 -41.71,255.85 v 264.48 c 0,152.37 11.51,206.99 56.01,265.91 41.7,57.5 115,89.13 202.7,89.13 104.9,0 182.6,-44.57 225.7,-127.93 24.4,-47.44 34.5,-106.37 34.5,-198.36 h -148.1 c 0,132.24 -33,186.86 -113.5,186.86 -38.8,0 -71.9,-17.25 -87.7,-48.88 -17.2,-31.62 -21.6,-60.36 -21.6,-137.98 v -293.23 c 0,-79.05 4.4,-120.74 15.9,-156.67 15.8,-44.56 53.1,-71.87 100.6,-71.87 77.6,0 110.7,56.06 110.7,189.74 v 38.8 h -122.2 v 122.18 h 270.2" /><path
         id="path76"
         style="fill:#1a3c5c;fill-opacity:1;fill-rule:nonzero;stroke:none"
         d="m 11010.9,1304.16 h -148 v 958.73 h 438.4 v -136.55 h -290.4 v -258.73 h 215.6 v -136.55 h -215.6 v -426.9" /><path
         id="path78"
         style="fill:#1a3c5c;fill-opacity:1;fill-rule:nonzero;stroke:none"
         d="m 11538.4,1304.16 h -148 v 958.73 h 148 v -958.73" /><path
         id="path80"
         style="fill:#1a3c5c;fill-opacity:1;fill-rule:nonzero;stroke:none"
         d="m 11975.4,1304.16 h -148.1 v 822.18 h -185.4 v 136.55 h 520.3 v -136.55 h -186.8 v -822.18" /><path
         id="path82"
         style="fill:#1a3c5c;fill-opacity:1;fill-rule:nonzero;stroke:none"
         d="m 12567.6,1304.16 h -148.1 v 822.18 h -185.4 v 136.55 h 520.3 v -136.55 h -186.8 v -822.18" /><path
         id="path84"
         style="fill:#1a3c5c;fill-opacity:1;fill-rule:nonzero;stroke:none"
         d="m 13006,1304.16 h -148 v 958.73 h 148 v -958.73" /><path
         id="path86"
         style="fill:#1a3c5c;fill-opacity:1;fill-rule:nonzero;stroke:none"
         d="m 13684.4,1304.16 h -132.2 l -258.7,638.19 v -638.19 h -140.9 v 958.73 h 149.5 l 241.5,-596.51 v 596.51 h 140.8 v -958.73" /><path
         id="path88"
         style="fill:#1a3c5c;fill-opacity:1;fill-rule:nonzero;stroke:none"
         d="m 14342.8,1779.93 v -475.77 h -76.2 l -27.3,81.93 c -48.9,-68.99 -102.1,-96.31 -179.7,-96.31 -87.7,0 -161,41.69 -198.3,112.12 -31.7,61.81 -41.7,123.62 -41.7,255.85 v 264.48 c 0,152.37 11.5,206.99 56,265.91 41.7,57.5 115,89.13 202.7,89.13 104.9,0 182.5,-44.57 225.7,-127.93 24.4,-47.44 34.5,-106.37 34.5,-198.36 h -148.1 c 0,132.24 -33,186.86 -113.5,186.86 -38.8,0 -71.9,-17.25 -87.7,-48.88 -17.3,-31.62 -21.6,-60.36 -21.6,-137.98 v -293.23 c 0,-79.05 4.3,-120.74 15.8,-156.67 15.8,-44.56 53.2,-71.87 100.7,-71.87 77.6,0 110.6,56.06 110.6,189.74 v 38.8 h -122.2 v 122.18 h 270.3" /><path
         id="path90"
         style="fill:#1a3c5c;fill-opacity:1;fill-rule:nonzero;stroke:none"
         d="m 14360.5,2192.16 11,32.96 30.1,-12.42 -2.9,32.48 h 34.9 l -2.9,-32.48 30.1,12.42 11,-32.96 -31.6,-7.65 21.1,-24.37 -28.2,-21.02 -16.7,28.19 -17.2,-28.19 -28.2,21.02 21,24.37 -31.5,7.65" /><path
         id="path92"
         style="fill:#1a3c5c;fill-opacity:1;fill-rule:nonzero;stroke:none"
         d="m 6276.4,876.93 c 0,-25.321 1.42,-33.91 6.2,-43.469 5.74,-10.512 17.69,-17.199 31.53,-17.199 13.86,0 25.8,6.687 31.54,17.199 5.25,10.027 6.21,17.68 6.21,43.469 v 114.191 c 0,25.789 -0.96,33.439 -6.21,43.479 -5.74,10.51 -17.68,17.2 -31.54,17.2 -13.84,0 -25.79,-6.69 -31.53,-17.2 -4.78,-9.56 -6.2,-18.17 -6.2,-43.479 z m 124.69,-0.95 c 0,-35.839 -5.26,-57.332 -18.16,-75.48 -14.33,-20.07 -38.22,-30.578 -68.8,-30.578 -30.57,0 -54.46,10.508 -68.79,30.578 -12.9,18.148 -18.15,39.641 -18.15,75.48 v 116.09 c 0,35.84 5.25,57.33 18.15,75.49 14.33,20.07 38.22,30.57 68.79,30.57 30.58,0 54.47,-10.5 68.8,-30.57 12.9,-18.16 18.16,-39.65 18.16,-75.49 V 875.98" /><path
         id="path94"
         style="fill:#1a3c5c;fill-opacity:1;fill-rule:nonzero;stroke:none"
         d="m 6523.41,950.98 c 21.03,0 30.58,2.399 38.22,10.04 8.12,8.121 11.95,21.019 11.95,38.699 0,17.191 -3.83,30.091 -11.95,38.221 -7.64,7.64 -17.19,10.03 -38.22,10.03 h -18.15 v -96.99 z m -18.15,-176.281 h -49.21 v 318.661 h 76.91 c 29.15,0 47.78,-5.73 63.07,-19.11 19.11,-16.24 28.66,-40.61 28.66,-72.14 0,-40.141 -14.33,-67.84 -43,-82.661 l 46.83,-144.75 h -51.6 l -42.04,130.903 h -29.62 V 774.699" /><path
         id="path96"
         style="fill:#1a3c5c;fill-opacity:1;fill-rule:nonzero;stroke:none"
         d="m 6879.36,914.199 h -45.86 c 5.73,-15.758 7.64,-26.75 7.64,-40.129 0,-16.73 -3.82,-27.711 -14.81,-43.48 24.84,-9.078 27.23,-10.031 32.96,-10.031 12.9,0 21.02,14.332 21.02,37.742 h 42.05 c 0,-53.512 -21.02,-86.942 -53.99,-86.942 -12.9,0 -23.41,3.34 -48.73,15.282 -10.51,5.25 -14.33,6.211 -19.11,6.211 -9.55,0 -19.59,-7.172 -31.05,-22.93 l -30.1,30.578 c 12.9,23.398 28.66,35.832 45.87,37.742 8.59,12.418 11.94,21.488 11.94,34.867 0,12.43 -2.87,21.981 -11.94,41.09 h -40.62 v 29.141 h 30.1 c -16.24,45.39 -19.11,55.898 -19.11,75.49 0,48.73 30.57,79.3 78.84,79.3 32,0 56.36,-13.85 68.78,-39.17 6.22,-13.38 9.09,-28.19 9.09,-52.08 h -45.87 c -0.96,33.45 -10.03,47.3 -32,47.3 -19.12,0 -31.54,-13.38 -31.54,-33.92 0,-16.25 2.39,-25.799 18.16,-68.319 l 2.86,-8.601 h 55.42 v -29.141" /><path
         id="path98"
         style="fill:#1a3c5c;fill-opacity:1;fill-rule:nonzero;stroke:none"
         d="m 7104.4,1050.36 h -98.9 l -1.44,-72.618 c 15.78,13.86 29.63,19.59 48.26,19.59 21.98,0 39.66,-9.562 50.16,-26.281 10.52,-17.672 13.86,-37.742 13.86,-82.172 0,-48.258 -3.82,-68.789 -16.72,-89.34 -12.42,-19.59 -34.4,-29.617 -63.54,-29.617 -49.21,0 -75.49,29.617 -75.49,85.519 0,0.95 0,5.25 0.48,9.071 h 45.87 v -8.121 c 0,-29.153 9.07,-42.512 29.62,-42.512 11.94,0 21.02,5.25 26.27,15.762 4.3,9.078 5.74,23.879 5.74,55.898 0,31.051 -1.44,44.43 -6.69,56.371 -4.3,10.031 -13.86,16.238 -25.32,16.238 -13.86,0 -21.98,-6.207 -32.5,-25.316 h -42.51 l 3.35,160.528 h 139.5 v -43" /><path
         id="path100"
         style="fill:#1a3c5c;fill-opacity:1;fill-rule:nonzero;stroke:none"
         d="m 7209.04,865.949 c 0,-21.98 0.95,-28.187 5.74,-37.269 5.25,-9.551 15.28,-14.801 28.18,-14.801 12.42,0 22.45,5.25 27.71,14.801 4.78,9.082 5.73,14.808 5.73,37.269 v 136.161 c 0,22.45 -0.95,28.18 -5.73,37.26 -5.26,9.55 -15.29,14.81 -27.71,14.81 -12.9,0 -22.93,-5.26 -28.18,-14.81 -4.79,-9.08 -5.74,-14.81 -5.74,-37.26 z m 113.71,10.031 c 0,-36.308 -4.78,-57.332 -16.72,-75.48 -13.38,-19.59 -35.84,-30.578 -63.07,-30.578 -27.71,0 -50.16,10.988 -63.54,30.578 -11.95,18.148 -16.72,39.641 -16.72,75.48 v 116.09 c 0,35.84 4.77,57.33 16.72,75.49 13.38,19.59 35.83,30.57 63.54,30.57 27.23,0 49.69,-10.98 63.07,-30.57 11.94,-18.16 16.72,-39.17 16.72,-75.49 V 875.98" /><path
         id="path102"
         style="fill:#1a3c5c;fill-opacity:1;fill-rule:nonzero;stroke:none"
         d="m 7506.22,774.699 h -49.21 v 318.661 h 145.72 v -45.39 h -96.51 v -86.001 h 71.66 V 916.59 h -71.66 V 774.699" /><path
         id="path104"
         style="fill:#1a3c5c;fill-opacity:1;fill-rule:nonzero;stroke:none"
         d="m 7692.07,876.93 c 0,-25.321 1.43,-33.91 6.21,-43.469 5.74,-10.512 17.68,-17.199 31.53,-17.199 13.85,0 25.8,6.687 31.53,17.199 5.25,10.027 6.21,17.68 6.21,43.469 v 114.191 c 0,25.789 -0.96,33.439 -6.21,43.479 -5.73,10.51 -17.68,17.2 -31.53,17.2 -13.85,0 -25.79,-6.69 -31.53,-17.2 -4.78,-9.56 -6.21,-18.17 -6.21,-43.479 z m 124.69,-0.95 c 0,-35.839 -5.25,-57.332 -18.15,-75.48 -14.34,-20.07 -38.23,-30.578 -68.8,-30.578 -30.58,0 -54.47,10.508 -68.79,30.578 -12.9,18.148 -18.16,39.641 -18.16,75.48 v 116.09 c 0,35.84 5.26,57.33 18.16,75.49 14.32,20.07 38.21,30.57 68.79,30.57 30.57,0 54.46,-10.5 68.8,-30.57 12.9,-18.16 18.15,-39.65 18.15,-75.49 V 875.98" /><path
         id="path106"
         style="fill:#1a3c5c;fill-opacity:1;fill-rule:nonzero;stroke:none"
         d="m 7939.08,950.98 c 21.03,0 30.58,2.399 38.23,10.04 8.11,8.121 11.94,21.019 11.94,38.699 0,17.191 -3.83,30.091 -11.94,38.221 -7.65,7.64 -17.2,10.03 -38.23,10.03 h -18.15 v -96.99 z m -18.15,-176.281 h -49.21 v 318.661 h 76.92 c 29.15,0 47.78,-5.73 63.06,-19.11 19.11,-16.24 28.66,-40.61 28.66,-72.14 0,-40.141 -14.32,-67.84 -42.99,-82.661 l 46.82,-144.75 h -51.6 l -42.04,130.903 h -29.62 V 774.699" /><path
         id="path108"
         style="fill:#1a3c5c;fill-opacity:1;fill-rule:nonzero;stroke:none"
         d="m 8256.81,1032.21 -25.79,-142.858 h 52.07 z m -33.44,-188.241 -12.9,-69.27 h -48.25 l 61.15,318.661 h 67.36 l 64.5,-318.661 h -50.64 l -13.38,69.27 h -67.84" /><path
         id="path110"
         style="fill:#1a3c5c;fill-opacity:1;fill-rule:nonzero;stroke:none"
         d="m 8447.93,820.09 h 97.94 v -45.391 h -147.15 v 318.661 h 49.21 V 820.09" /><path
         id="path112"
         style="fill:#1a3c5c;fill-opacity:1;fill-rule:nonzero;stroke:none"
         d="m 8635.23,820.09 h 97.94 v -45.391 h -147.15 v 318.661 h 49.21 V 820.09" /><path
         id="path114"
         style="fill:#1a3c5c;fill-opacity:1;fill-rule:nonzero;stroke:none"
         d="m 8901.84,876.93 c 0,-25.321 1.43,-33.91 6.21,-43.469 5.73,-10.512 17.68,-17.199 31.53,-17.199 13.85,0 25.8,6.687 31.52,17.199 5.25,10.027 6.21,17.68 6.21,43.469 v 114.191 c 0,25.789 -0.96,33.439 -6.21,43.479 -5.72,10.51 -17.67,17.2 -31.52,17.2 -13.85,0 -25.8,-6.69 -31.53,-17.2 -4.78,-9.56 -6.21,-18.17 -6.21,-43.479 z m 124.69,-0.95 c 0,-35.839 -5.25,-57.332 -18.16,-75.48 -14.34,-20.07 -38.23,-30.578 -68.79,-30.578 -30.59,0 -54.48,10.508 -68.79,30.578 -12.91,18.148 -18.16,39.641 -18.16,75.48 v 116.09 c 0,35.84 5.25,57.33 18.16,75.49 14.31,20.07 38.2,30.57 68.79,30.57 30.56,0 54.45,-10.5 68.79,-30.57 12.91,-18.16 18.16,-39.65 18.16,-75.49 V 875.98" /><path
         id="path116"
         style="fill:#1a3c5c;fill-opacity:1;fill-rule:nonzero;stroke:none"
         d="m 9176.55,774.699 h -49.22 v 273.271 h -61.62 v 45.39 h 172.95 v -45.39 h -62.11 V 774.699" /><path
         id="path118"
         style="fill:#1a3c5c;fill-opacity:1;fill-rule:nonzero;stroke:none"
         d="M 9331.84,915.148 V 774.699 h -49.22 v 318.661 h 49.22 V 960.551 h 70.22 v 132.809 h 49.22 V 774.699 h -49.22 v 140.449 h -70.22" /><path
         id="path120"
         style="fill:#1a3c5c;fill-opacity:1;fill-rule:nonzero;stroke:none"
         d="m 9653.39,1047.97 h -95.08 v -84.079 h 70.23 v -45.403 h -70.23 V 820.09 h 95.08 v -45.391 h -144.28 v 318.661 h 144.28 v -45.39" /><path
         id="path122"
         style="fill:#1a3c5c;fill-opacity:1;fill-rule:nonzero;stroke:none"
         d="m 9764.23,950.98 c 21.03,0 30.58,2.399 38.22,10.04 8.12,8.121 11.95,21.019 11.95,38.699 0,17.191 -3.83,30.091 -11.95,38.221 -7.64,7.64 -17.19,10.03 -38.22,10.03 h -18.15 v -96.99 z m -18.15,-176.281 h -49.22 v 318.661 h 76.92 c 29.16,0 47.79,-5.73 63.06,-19.11 19.12,-16.24 28.68,-40.61 28.68,-72.14 0,-40.141 -14.34,-67.84 -43.01,-82.661 l 46.83,-144.75 h -51.6 l -42.05,130.903 h -29.61 V 774.699" /><path
         id="path124"
         style="fill:#1a3c5c;fill-opacity:1;fill-rule:nonzero;stroke:none"
         d="m 10048,774.699 h -49.16 v 318.661 h 145.66 v -45.39 h -96.5 v -86.001 h 71.7 V 916.59 H 10048 V 774.699" /><path
         id="path126"
         style="fill:#1a3c5c;fill-opacity:1;fill-rule:nonzero;stroke:none"
         d="m 10232.9,774.699 h -49.2 v 318.661 h 49.2 V 774.699" /><path
         id="path128"
         style="fill:#1a3c5c;fill-opacity:1;fill-rule:nonzero;stroke:none"
         d="m 10387.7,774.699 h -49.2 v 273.271 h -61.6 v 45.39 h 173 v -45.39 h -62.2 V 774.699" /><path
         id="path130"
         style="fill:#1a3c5c;fill-opacity:1;fill-rule:nonzero;stroke:none"
         d="m 10594.1,774.699 h -49.2 v 273.271 h -61.6 v 45.39 h 172.9 v -45.39 h -62.1 V 774.699" /><path
         id="path132"
         style="fill:#1a3c5c;fill-opacity:1;fill-rule:nonzero;stroke:none"
         d="m 10749.4,774.699 h -49.2 v 318.661 h 49.2 V 774.699" /><path
         id="path134"
         style="fill:#1a3c5c;fill-opacity:1;fill-rule:nonzero;stroke:none"
         d="m 10984.5,774.699 h -44 l -86,212.11 v -212.11 h -46.8 v 318.661 h 49.7 l 80.3,-198.27 v 198.27 h 46.8 V 774.699" /><path
         id="path136"
         style="fill:#1a3c5c;fill-opacity:1;fill-rule:nonzero;stroke:none"
         d="M 11212.9,932.832 V 774.699 h -25.4 l -9,27.231 c -16.3,-22.938 -34,-32.008 -59.7,-32.008 -29.2,0 -53.6,13.859 -66,37.269 -10.5,20.528 -13.8,41.079 -13.8,85.039 v 87.899 c 0,50.641 3.8,68.791 18.6,88.381 13.9,19.12 38.2,29.62 67.4,29.62 34.8,0 60.6,-14.8 75,-42.52 8.1,-15.76 11.4,-35.35 11.4,-65.919 h -49.2 c 0,43.949 -11,62.109 -37.7,62.109 -12.9,0 -23.9,-5.74 -29.2,-16.25 -5.7,-10.51 -7.1,-20.06 -7.1,-45.859 V 892.23 c 0,-26.281 1.4,-40.14 5.2,-52.089 5.3,-14.801 17.7,-23.879 33.5,-23.879 25.8,0 36.8,18.629 36.8,63.058 v 12.91 h -40.6 v 40.602 h 89.8" /><path
         id="path138"
         style="fill:#1a3c5c;fill-opacity:1;fill-rule:nonzero;stroke:none"
         d="m 11392,1004.49 c -7.6,31.53 -21.9,47.31 -42,47.31 -18.2,0 -32,-13.86 -32,-32.49 0,-10.99 4.8,-22.931 13.4,-32.021 8.1,-9.07 8.1,-9.07 42,-34.867 26.8,-21.031 36.8,-30.102 47.3,-43 12.9,-15.762 20.5,-36.781 20.5,-58.281 0,-48.262 -35.3,-81.219 -87.4,-81.219 -54.4,0 -86.4,29.137 -96.5,89.808 l 47.3,13.86 c 6.2,-38.219 22.9,-57.328 49.2,-57.328 21.5,0 36.3,14.808 36.3,36.308 0,20.071 -10,32.969 -47.3,62.11 -44.4,34.871 -46.3,36.781 -58.3,52.082 -11.4,14.797 -17.6,33.428 -17.6,53.018 0,45.86 34.4,78.35 83.1,78.35 45.4,0 76,-27.22 89.3,-79.78 l -47.3,-13.86" /><path
         id="path140"
         style="fill:#1a3c5c;fill-opacity:1;fill-rule:nonzero;stroke:none"
         d="m 11478.5,1040.33 11,32.96 30.1,-12.42 -2.9,32.49 h 34.9 l -2.8,-32.49 30.1,12.42 11,-32.96 -31.6,-7.65 21,-24.36 -28.2,-21.031 -16.7,28.201 -17.2,-28.201 -28.2,21.031 21.1,24.36 -31.6,7.65" /><path
         id="path142"
         style="fill:#1a3c5c;fill-opacity:1;fill-rule:nonzero;stroke:none"
         d="m 11894.2,774.699 -41.1,215.942 -38.7,-215.942 h -45.9 l -59.7,318.661 h 47.8 l 36.3,-205.438 38.2,205.438 h 42.5 l 42.1,-205.438 32,205.438 h 46.4 l -54,-318.661 h -45.9" /><path
         id="path144"
         style="fill:#1a3c5c;fill-opacity:1;fill-rule:nonzero;stroke:none"
         d="m 12090.6,774.699 h -49.2 v 318.661 h 49.2 V 774.699" /><path
         id="path146"
         style="fill:#1a3c5c;fill-opacity:1;fill-rule:nonzero;stroke:none"
         d="m 12245.4,774.699 h -49.3 v 273.271 h -61.6 v 45.39 h 173 v -45.39 h -62.1 V 774.699" /><path
         id="path148"
         style="fill:#1a3c5c;fill-opacity:1;fill-rule:nonzero;stroke:none"
         d="M 12400.7,915.148 V 774.699 h -49.3 v 318.661 h 49.3 V 960.551 h 70.2 v 132.809 h 49.2 V 774.699 h -49.2 v 140.449 h -70.2" /><path
         id="path150"
         style="fill:#1a3c5c;fill-opacity:1;fill-rule:nonzero;stroke:none"
         d="m 12731.3,949.07 c 39.6,0 52,11.95 52,49.692 0,37.258 -12.4,49.208 -52,49.208 h -21.5 v -98.9 z m -21.5,-174.371 h -49.2 v 318.661 h 81.7 c 32,0 52,-6.21 66.8,-20.55 17.3,-16.24 25.4,-40.13 25.4,-74.048 0,-34.403 -8.1,-58.282 -25.4,-74.524 -14.8,-14.34 -34.8,-20.547 -66.8,-20.547 h -32.5 V 774.699" /><path
         id="path152"
         style="fill:#1a3c5c;fill-opacity:1;fill-rule:nonzero;stroke:none"
         d="M 13050.4,1093.36 V 877.41 c 0,-40.129 -4.7,-60.672 -18.1,-78.828 -13.9,-18.633 -37.3,-28.66 -65.9,-28.66 -29.2,0 -52.6,10.027 -66.5,28.66 -13.3,18.156 -18.1,38.699 -18.1,78.828 v 215.95 h 49.2 V 869.301 c 0,-37.75 10,-53.039 35.4,-53.039 24.8,0 34.8,15.289 34.8,53.039 v 224.059 h 49.2" /><path
         id="path154"
         style="fill:#1a3c5c;fill-opacity:1;fill-rule:nonzero;stroke:none"
         d="m 13175.6,950.98 c 21,0 30.6,2.399 38.2,10.04 8.2,8.121 12,21.019 12,38.699 0,17.191 -3.8,30.091 -12,38.221 -7.6,7.64 -17.2,10.03 -38.2,10.03 h -18.1 v -96.99 z m -18.1,-176.281 h -49.3 v 318.661 h 77 c 29.1,0 47.8,-5.73 63,-19.11 19.2,-16.24 28.7,-40.61 28.7,-72.14 0,-40.141 -14.3,-67.84 -43,-82.661 l 46.8,-144.75 h -51.6 l -42,130.903 h -29.6 V 774.699" /><path
         id="path156"
         style="fill:#1a3c5c;fill-opacity:1;fill-rule:nonzero;stroke:none"
         d="m 13449.4,989.691 v 6.688 c 0,36.781 -12.9,55.421 -37.3,55.421 -13.3,0 -23.9,-5.74 -29.1,-15.78 -6.2,-10.5 -7.7,-20.05 -7.7,-45.86 V 884.102 c 0,-24.372 1.5,-36.793 5.3,-47.293 4.8,-12.43 17.2,-20.547 31.5,-20.547 18.2,0 30.1,10.508 35.4,31.527 1.9,8.133 2.4,15.293 2.8,38.703 h 49.7 v -10.98 c 0,-69.282 -30.1,-105.59 -87.4,-105.59 -32,0 -57.3,12.418 -71.2,35.348 -11.9,19.589 -15.3,38.218 -15.3,85.519 v 89.34 c 0,50.641 3.8,68.321 18.7,88.381 13.8,19.12 37.7,29.62 67.3,29.62 54.5,0 86.5,-36.31 86.5,-98.892 v -9.547 h -49.2" /><path
         id="path158"
         style="fill:#1a3c5c;fill-opacity:1;fill-rule:nonzero;stroke:none"
         d="M 13600.4,915.148 V 774.699 h -49.2 v 318.661 h 49.2 V 960.551 h 70.2 v 132.809 h 49.2 V 774.699 h -49.2 v 140.449 h -70.2" /><path
         id="path160"
         style="fill:#1a3c5c;fill-opacity:1;fill-rule:nonzero;stroke:none"
         d="m 13863.2,1032.21 -25.8,-142.858 h 52 z m -33.5,-188.241 -12.9,-69.27 h -48.2 l 61.1,318.661 h 67.4 l 64.5,-318.661 h -50.7 l -13.4,69.27 h -67.8" /><path
         id="path162"
         style="fill:#1a3c5c;fill-opacity:1;fill-rule:nonzero;stroke:none"
         d="m 14127.8,1004.49 c -7.6,31.53 -21.9,47.31 -42,47.31 -18.2,0 -32,-13.86 -32,-32.49 0,-10.99 4.8,-22.931 13.4,-32.021 8.1,-9.07 8.1,-9.07 42,-34.867 26.8,-21.031 36.8,-30.102 47.3,-43 12.9,-15.762 20.5,-36.781 20.5,-58.281 0,-48.262 -35.3,-81.219 -87.4,-81.219 -54.4,0 -86.4,29.137 -96.5,89.808 l 47.3,13.86 c 6.2,-38.219 22.9,-57.328 49.2,-57.328 21.5,0 36.3,14.808 36.3,36.308 0,20.071 -10,32.969 -47.3,62.11 -44.4,34.871 -46.3,36.781 -58.3,52.082 -11.4,14.797 -17.6,33.428 -17.6,53.018 0,45.86 34.4,78.35 83.1,78.35 45.4,0 76,-27.22 89.3,-79.78 l -47.3,-13.86" /><path
         id="path164"
         style="fill:#1a3c5c;fill-opacity:1;fill-rule:nonzero;stroke:none"
         d="m 14365.3,1047.97 h -95.1 v -84.079 h 70.3 v -45.403 h -70.3 V 820.09 h 95.1 V 774.699 H 14221 v 318.661 h 144.3 v -45.39" /><path
         id="path166"
         style="fill:#1a3c5c;fill-opacity:1;fill-rule:nonzero;stroke:none"
         d="m 15320.3,2074.48 v -169.33 c -0.2,-25.43 -7.2,-44.88 -21,-58.38 -13.7,-13.5 -33.5,-20.24 -59.3,-20.24 -26.2,0 -46.2,6.82 -60,20.49 -13.9,13.67 -20.8,33.43 -20.8,59.3 v 168.16 h 49.8 v -168.32 c 0,-13.89 2.2,-23.8 6.7,-29.74 4.5,-5.94 12.6,-8.91 24.3,-8.91 11.8,0 19.9,2.94 24.2,8.83 4.4,5.88 6.6,15.54 6.7,28.98 v 169.16 h 49.4" /><path
         id="path168"
         style="fill:#1a3c5c;fill-opacity:1;fill-rule:nonzero;stroke:none"
         d="m 15435.9,1878.61 c 0,4.03 -1.9,7.75 -5.8,11.17 -3.8,3.41 -12.4,8.04 -25.8,13.86 -19.6,7.95 -33,16.18 -40.4,24.69 -7.3,8.51 -11,19.1 -11,31.75 0,15.9 5.8,29.03 17.2,39.4 11.5,10.36 26.7,15.53 45.7,15.53 19.9,0 35.8,-5.14 47.8,-15.45 12,-10.31 18,-24.14 18,-41.49 h -47.5 c 0,14.77 -6.2,22.17 -18.5,22.17 -5.1,0 -9.2,-1.56 -12.4,-4.7 -3.3,-3.13 -4.9,-7.51 -4.9,-13.11 0,-4.03 1.8,-7.58 5.4,-10.66 3.5,-3.09 12,-7.48 25.3,-13.19 19.4,-7.17 33.1,-15.15 41.1,-23.94 8,-8.8 12,-20.19 12,-34.19 0,-16.24 -6.1,-29.29 -18.3,-39.14 -12.2,-9.86 -28.2,-14.78 -48,-14.78 -13.4,0 -25.1,2.6 -35.3,7.81 -10.2,5.2 -18.2,12.46 -24,21.76 -5.7,9.28 -8.6,19.31 -8.6,30.06 h 45.2 c 0.2,-8.28 2.1,-14.5 5.8,-18.65 3.6,-4.13 9.6,-6.21 17.9,-6.21 12.7,0 19.1,5.76 19.1,17.31" /><path
         id="path170"
         style="fill:#1a3c5c;fill-opacity:1;fill-rule:nonzero;stroke:none"
         d="m 15555.2,1938.08 h 47.5 v 4.37 c -0.2,10.85 -2,19.09 -5.3,24.69 -3.4,5.6 -9.2,8.4 -17.5,8.4 -8.3,0 -14.3,-2.97 -18.1,-8.91 -3.7,-5.93 -5.9,-15.45 -6.6,-28.55 z m 29.9,-111.55 c -24.4,0 -43.5,7.27 -57.1,21.83 -13.7,14.56 -20.5,35.39 -20.5,62.5 v 14.44 c 0,28.68 6.3,50.8 18.8,66.36 12.5,15.57 30.5,23.35 53.9,23.35 22.9,0 40.1,-7.29 51.6,-21.88 11.5,-14.6 17.4,-36.21 17.6,-64.84 v -23.31 h -94.5 c 0.6,-13.5 3.6,-23.37 8.9,-29.62 5.2,-6.23 13.3,-9.35 24.3,-9.35 15.9,0 29.2,5.43 39.8,16.29 l 18.7,-28.72 c -5.8,-8.07 -14.3,-14.59 -25.4,-19.58 -11.1,-4.98 -23.1,-7.47 -36.1,-7.47" /><path
         id="path172"
         style="fill:#1a3c5c;fill-opacity:1;fill-rule:nonzero;stroke:none"
         d="m 15849.9,1926.98 c 0,17.59 -2,30.02 -5.8,37.3 -3.9,7.29 -10.4,10.92 -19.6,10.92 -9.8,0 -16.9,-4.08 -21.3,-12.26 v -85.17 c 4.2,-7.84 11.4,-11.76 21.6,-11.76 9.4,0 16,3.97 19.6,11.92 3.6,7.95 5.5,20.32 5.5,37.13 z m 47.3,-11.92 c 0,-28.56 -4.9,-50.46 -14.7,-65.68 -9.8,-15.24 -24.4,-22.85 -43.7,-22.85 -14.8,0 -26.7,5.98 -35.6,17.97 V 1760 h -47.6 v 251.65 h 44 l 1.7,-16.63 c 9.1,13.33 21.5,19.99 37.1,19.99 19.4,0 34,-7.05 43.8,-21.16 9.8,-14.11 14.8,-35.73 15,-64.84 v -13.95" /><path
         id="path174"
         style="fill:#1a3c5c;fill-opacity:1;fill-rule:nonzero;stroke:none"
         d="m 16015.7,1965.79 -15.8,1.35 c -13,0 -21.8,-5.71 -26.4,-17.14 v -120.11 h -47.7 v 181.76 h 44.8 l 1.4,-19.65 c 7.5,15.35 17.9,23.01 31.1,23.01 5.3,0 9.7,-0.72 13.1,-2.17 l -0.5,-47.05" /><path
         id="path176"
         style="fill:#1a3c5c;fill-opacity:1;fill-rule:nonzero;stroke:none"
         d="m 16076.1,1914.72 c 0,-32.48 8.7,-48.71 26.1,-48.71 16,0 24.6,13.54 25.9,40.65 l 0.1,19.99 c 0,16.58 -2.3,28.87 -6.9,36.88 -4.6,8.01 -11,12.01 -19.4,12.01 -8.1,0 -14.4,-4 -19,-12.01 -4.5,-8.01 -6.8,-20.3 -6.8,-36.88 z m -47.7,11.93 c 0,27.55 6.5,49.16 19.5,64.85 13,15.67 31,23.51 54,23.51 23.1,0 41.2,-7.84 54.2,-23.51 13,-15.69 19.5,-37.41 19.5,-65.19 v -11.59 c 0,-27.66 -6.4,-49.28 -19.3,-64.84 -12.9,-15.57 -30.9,-23.35 -54.1,-23.35 -23.3,0 -41.4,7.81 -54.4,23.43 -12.9,15.63 -19.4,37.32 -19.4,65.1 v 11.59" /><g
         transform="scale(1.00768)"
         id="g178"><path
           id="path180"
           style="fill:#1a3c5c;fill-opacity:1;fill-rule:nonzero;stroke:none"
           d="m 16126,1996.32 1.3,-16.67 c 10.5,13.34 24.5,20 41.9,20 18,0 30.7,-8.11 38.1,-24.33 10.3,16.22 25.1,24.33 44.2,24.33 31.6,0 47.8,-21.83 48.5,-65.51 v -118.2 h -47.1 v 115.2 c 0,10.45 -1.5,17.89 -4.4,22.34 -2.9,4.44 -7.7,6.66 -14.7,6.66 -8.7,0 -15.3,-5.38 -19.6,-16.16 l 0.4,-5.67 v -122.37 h -47.3 v 114.87 c 0,10.33 -1.4,17.8 -4.1,22.41 -2.8,4.62 -7.8,6.92 -14.8,6.92 -8.2,0 -14.6,-4.39 -19.4,-13.17 v -131.03 h -47.2 v 180.38 h 44.2" /></g><g
         transform="scale(1.01853)"
         id="g182"><path
           id="path184"
           style="fill:#1a3c5c;fill-opacity:1;fill-rule:nonzero;stroke:none"
           d="m 16202.3,1879.89 c 0,-31.89 8.6,-47.83 25.6,-47.83 15.7,0 24.2,13.3 25.4,39.92 l 0.2,19.63 c 0,16.27 -2.3,28.34 -6.8,36.2 -4.5,7.87 -10.9,11.8 -19.2,11.8 -7.8,0 -14,-3.93 -18.5,-11.8 -4.4,-7.86 -6.7,-19.93 -6.7,-36.2 z m -46.8,11.72 c 0,27.05 6.4,48.26 19.1,63.66 12.8,15.39 30.5,23.09 52.9,23.09 22.8,0 40.6,-7.7 53.4,-23.09 12.7,-15.4 19.1,-36.73 19.1,-64 v -11.38 c 0,-27.15 -6.4,-48.38 -19,-63.67 -12.6,-15.28 -30.4,-22.92 -53.1,-22.92 -22.8,0 -40.7,7.67 -53.4,23.01 -12.6,15.34 -19,36.64 -19,63.92 v 11.38" /></g><g
         transform="scale(1.03326)"
         id="g186"><path
           id="path188"
           style="fill:#1a3c5c;fill-opacity:1;fill-rule:nonzero;stroke:none"
           d="m 16236.4,1805.94 c 13.4,0 20.1,8.66 20.3,26.01 h 43.3 c -0.2,-19.19 -6.1,-34.69 -17.7,-46.5 -11.6,-11.82 -26.6,-17.72 -44.9,-17.72 -22.7,0 -40,7.04 -51.9,21.13 -11.9,14.09 -18,34.85 -18.2,62.27 v 13.98 c 0,27.64 5.9,48.72 17.6,63.25 11.8,14.52 29.2,21.78 52.2,21.78 19.3,0 34.6,-5.98 45.9,-17.96 11.1,-11.98 16.8,-28.97 17,-50.97 h -43.3 c -0.1,9.86 -1.7,17.45 -4.8,22.77 -3.2,5.31 -8.4,7.96 -15.7,7.96 -7.9,0 -13.7,-2.84 -17.2,-8.53 -3.5,-5.7 -5.3,-16.73 -5.5,-33.09 v -17.88 c 0,-14.31 0.8,-24.31 2.1,-30 1.5,-5.69 3.8,-9.87 7,-12.52 3.3,-2.66 7.8,-3.98 13.8,-3.98" /></g><g
         transform="scale(1.0436)"
         id="g190"><path
           id="path192"
           style="fill:#1a3c5c;fill-opacity:1;fill-rule:nonzero;stroke:none"
           d="m 16204.7,1834.72 c 0,-31.12 8.3,-46.67 25,-46.67 15.3,0 23.5,12.98 24.8,38.95 l 0.1,19.16 c 0,15.88 -2.2,27.66 -6.6,35.33 -4.4,7.68 -10.7,11.52 -18.6,11.52 -7.8,0 -13.8,-3.84 -18.2,-11.52 -4.3,-7.67 -6.5,-19.45 -6.5,-35.33 z m -45.7,11.44 c 0,26.4 6.2,47.1 18.6,62.14 12.5,15.01 29.7,22.53 51.8,22.53 22.1,0 39.5,-7.52 51.9,-22.53 12.5,-15.04 18.7,-35.85 18.7,-62.47 v -11.11 c 0,-26.5 -6.1,-47.22 -18.5,-62.13 -12.4,-14.92 -29.6,-22.37 -51.8,-22.37 -22.4,0 -39.7,7.48 -52.2,22.45 -12.3,14.98 -18.5,35.76 -18.5,62.38 v 11.11" /></g><g
         transform="scale(1.05373)"
         id="g194"><path
           id="path196"
           style="fill:#1a3c5c;fill-opacity:1;fill-rule:nonzero;stroke:none"
           d="m 16210.6,1816.77 c 0,-17 1.8,-28.88 5.4,-35.63 3.6,-6.75 9.8,-10.12 18.3,-10.12 8.9,0 15.7,3.98 20.3,11.95 v 78.76 c -4.4,8.5 -11.2,12.75 -20.1,12.75 -8.2,0 -14.3,-3.34 -18.2,-10.03 -3.8,-6.7 -5.7,-18.62 -5.7,-35.72 z m -45.3,11.32 c 0,28.27 4.8,49.37 14.4,63.3 9.6,13.92 23.5,20.88 41.7,20.88 13.3,0 24.4,-5.74 33.2,-17.22 v 86.41 h 45.4 v -244.88 h -40.9 l -2.1,17.53 c -9.3,-13.82 -21.2,-20.72 -35.8,-20.72 -18,0 -31.8,6.9 -41.3,20.72 -9.5,13.82 -14.4,34.13 -14.6,60.91 v 13.07" /></g><g
         transform="scale(1.06433)"
         id="g198"><path
           id="path200"
           style="fill:#1a3c5c;fill-opacity:1;fill-rule:nonzero;stroke:none"
           d="m 16211.5,1820.95 h 44.6 v 4.1 c -0.2,10.2 -1.9,17.94 -5,23.2 -3.1,5.26 -8.6,7.9 -16.4,7.9 -7.8,0 -13.4,-2.8 -17,-8.38 -3.5,-5.57 -5.5,-14.52 -6.2,-26.82 z m 28.1,-104.81 c -22.9,0 -40.9,6.83 -53.7,20.51 -12.8,13.68 -19.2,33.25 -19.2,58.73 v 13.56 c 0,26.94 5.8,47.73 17.6,62.35 11.8,14.63 28.7,21.94 50.7,21.94 21.5,0 37.7,-6.85 48.5,-20.56 10.8,-13.72 16.3,-34.02 16.5,-60.92 v -21.9 h -88.8 c 0.6,-12.69 3.4,-21.96 8.4,-27.83 4.9,-5.86 12.5,-8.79 22.8,-8.79 14.9,0 27.4,5.1 37.4,15.31 l 17.6,-26.99 c -5.5,-7.58 -13.5,-13.71 -23.9,-18.39 -10.4,-4.69 -21.7,-7.02 -33.9,-7.02" /></g><g
         transform="scale(1.06963)"
         id="g202"><path
           id="path204"
           style="fill:#1a3c5c;fill-opacity:1;fill-rule:nonzero;stroke:none"
           d="m 16248.3,1733.39 c 0,7.12 2.4,12.98 7.2,17.59 4.8,4.6 10.9,6.91 18.6,6.91 7.4,0 13.6,-2.28 18.5,-6.84 5,-4.54 7.4,-10.43 7.4,-17.66 0,-7.33 -2.5,-13.22 -7.5,-17.67 -4.9,-4.45 -11.1,-6.67 -18.4,-6.67 -7.5,0 -13.6,2.24 -18.5,6.74 -4.9,4.5 -7.3,10.38 -7.3,17.6 z m 0,128.48 c 0,7.11 2.4,12.98 7.2,17.59 4.8,4.6 10.9,6.91 18.6,6.91 7.4,0 13.6,-2.29 18.5,-6.84 5,-4.56 7.4,-10.44 7.4,-17.66 0,-7.34 -2.5,-13.23 -7.5,-17.67 -4.9,-4.46 -11.1,-6.68 -18.4,-6.68 -7.5,0 -13.6,2.25 -18.5,6.75 -4.9,4.5 -7.3,10.37 -7.3,17.6" /></g><path
         id="path206"
         style="fill:#1a3c5c;fill-opacity:1;fill-rule:nonzero;stroke:none"
         d="m 15485,1417.02 h -49.4 l -72.3,160.44 v -160.44 h -49.3 v 244.61 h 49.3 l 72.4,-160.61 v 160.61 h 49.3 v -244.61" /><path
         id="path208"
         style="fill:#1a3c5c;fill-opacity:1;fill-rule:nonzero;stroke:none"
         d="m 15650.9,1522.86 h -76.9 v -64.84 h 91.1 v -41 h -140.5 v 244.61 h 140.1 v -41.17 h -90.7 v -57.78 h 76.9 v -39.82" /><path
         id="path210"
         style="fill:#1a3c5c;fill-opacity:1;fill-rule:nonzero;stroke:none"
         d="m 15852.4,1507.92 23.2,153.71 h 48.8 l -43.5,-244.61 h -49.5 l -28.6,144.15 -28.2,-144.15 h -49.7 l -43.7,244.61 h 49.2 l 23,-153.56 28.8,153.56 h 41.4 l 28.8,-153.71" /><path
         id="path212"
         style="fill:#1a3c5c;fill-opacity:1;fill-rule:nonzero;stroke:none"
         d="m 16024.9,1551.77 36.8,109.86 h 53.8 l -65.6,-155.9 v -88.71 h -50 v 88.71 l -65.7,155.9 h 53.7 l 37,-109.86" /><path
         id="path214"
         style="fill:#1a3c5c;fill-opacity:1;fill-rule:nonzero;stroke:none"
         d="m 16264.1,1522.86 h -76.9 v -64.84 h 91 v -41 h -140.4 v 244.61 h 140.1 v -41.17 h -90.7 v -57.78 h 76.9 v -39.82" /><g
         transform="scale(1.01161)"
         id="g216"><path
           id="path218"
           style="fill:#1a3c5c;fill-opacity:1;fill-rule:nonzero;stroke:none"
           d="m 16179,1490.94 h 45.2 l -22.7,86.19 z m 56,-40.69 h -66.7 l -12.9,-49.49 h -51.6 l 75.5,241.8 h 44.7 l 76,-241.8 h -52.1 l -12.9,49.49" /></g><g
         transform="scale(1.02307)"
         id="g220"><path
           id="path222"
           style="fill:#1a3c5c;fill-opacity:1;fill-rule:nonzero;stroke:none"
           d="m 16188.1,1512.65 h 27.4 c 9.6,0 16.9,3.21 21.7,9.62 4.8,6.4 7.3,14.96 7.3,25.69 0,23.98 -9.4,35.95 -28.2,35.95 h -28.2 z m 24,-40.23 h -24 v -87.36 h -48.2 v 239.09 h 76.9 c 24.3,0 42.9,-6.27 56.1,-18.8 13.2,-12.54 19.9,-30.35 19.9,-53.45 0,-31.76 -11.7,-53.97 -34.7,-66.67 l 41.9,-97.86 v -2.31 h -51.9 l -36,87.36" /></g><g
         transform="scale(1.03331)"
         id="g224"><path
           id="path226"
           style="fill:#1a3c5c;fill-opacity:1;fill-rule:nonzero;stroke:none"
           d="m 16300,1371.34 h -139.5 v 32.52 l 64.1,81.45 c 8.1,11.26 14.1,21.15 17.9,29.67 3.9,8.51 5.8,16.67 5.8,24.47 0,10.51 -1.8,18.75 -5.4,24.71 -3.7,5.96 -8.9,8.95 -15.7,8.95 -7.5,0 -13.4,-3.48 -17.8,-10.41 -4.4,-6.94 -6.6,-16.7 -6.6,-29.26 h -46.1 c 0,14.52 3,27.8 9,39.83 6,12.03 14.4,21.37 25.3,28.04 10.9,6.67 23.3,10 37,10 21.2,0 37.5,-5.82 49.2,-17.48 11.7,-11.65 17.5,-28.21 17.5,-49.67 0,-13.32 -3.2,-26.85 -9.7,-40.57 -6.5,-13.7 -18.1,-30.58 -35,-50.63 l -30.4,-43.4 h 80.4 v -38.22" /></g><g
         transform="scale(1.04387)"
         id="g228"><path
           id="path230"
           style="fill:#1a3c5c;fill-opacity:1;fill-rule:nonzero;stroke:none"
           d="m 16254.3,1501.83 c 0,18.45 -1.9,32.3 -5.6,41.52 -3.6,9.22 -9.2,13.85 -17,13.85 -14.5,0 -21.9,-16.91 -22.5,-50.7 v -58.42 c 0,-18.9 1.8,-32.95 5.5,-42.17 3.8,-9.22 9.5,-13.83 17.4,-13.83 7.4,0 12.8,4.3 16.5,12.95 3.5,8.62 5.4,21.85 5.7,39.66 z m 45.7,-47.49 c 0,-32.4 -5.9,-57.17 -17.6,-74.34 -11.8,-17.16 -28.6,-25.75 -50.3,-25.75 -21.6,0 -38.2,8.34 -50,25.03 -11.8,16.68 -17.8,40.59 -18.3,71.7 v 44.24 c 0,32.3 5.8,57.01 17.5,74.12 11.8,17.11 28.6,25.67 50.4,25.67 21.9,0 38.7,-8.48 50.4,-25.43 11.7,-16.95 17.6,-41.14 17.9,-72.58 v -42.66" /></g><g
         transform="scale(1.05467)"
         id="g232"><path
           id="path234"
           style="fill:#1a3c5c;fill-opacity:1;fill-rule:nonzero;stroke:none"
           d="m 16300,1343.57 h -136.6 v 31.87 l 62.7,79.79 c 8,11.04 13.9,20.73 17.6,29.07 3.8,8.34 5.7,16.33 5.7,23.98 0,10.3 -1.8,18.37 -5.3,24.2 -3.6,5.85 -8.8,8.77 -15.4,8.77 -7.4,0 -13.2,-3.4 -17.4,-10.19 -4.4,-6.81 -6.5,-16.36 -6.5,-28.67 h -45.3 c 0,14.22 3,27.23 8.9,39.02 5.9,11.79 14.1,20.94 24.8,27.47 10.7,6.54 22.8,9.8 36.3,9.8 20.6,0 36.7,-5.7 48.1,-17.12 11.5,-11.42 17.2,-27.64 17.2,-48.67 0,-13.05 -3.2,-26.31 -9.5,-39.75 -6.3,-13.42 -17.7,-29.96 -34.3,-49.6 l -29.8,-42.53 h 78.8 v -37.44" /></g><g
         transform="scale(1.06528)"
         id="g236"><path
           id="path238"
           style="fill:#1a3c5c;fill-opacity:1;fill-rule:nonzero;stroke:none"
           d="m 16170.4,1443.11 11.3,116.7 h 111.2 v -38.17 h -74.6 l -4.1,-49.2 c 8.6,5.78 17.5,8.68 26.7,8.68 18.8,0 33.5,-6.73 43.7,-20.18 10.2,-13.46 15.4,-32.49 15.4,-57.1 0,-23.02 -6.1,-41.58 -18.3,-55.66 -12.2,-14.1 -28.5,-21.14 -48.9,-21.14 -12.1,0 -23.3,2.88 -33.6,8.6 -10.3,5.71 -18.4,13.69 -24.3,23.89 -5.9,10.19 -9,21.75 -9.1,34.68 h 44.2 c 0.6,-9.54 3.1,-16.97 7,-22.22 4.1,-5.26 9.2,-7.88 15.5,-7.88 7.3,0 13.1,3.54 17,10.63 4,7.1 6,17.7 6,31.78 0,13.25 -2.3,23.24 -7.1,29.97 -4.8,6.71 -11.6,10.08 -20.1,10.08 -8.5,0 -15,-2.89 -19.6,-8.66 l -2.9,-3.94 -35.4,9.14" /></g><path
         id="path240"
         style="fill:#1a3c5c;fill-opacity:1;fill-rule:nonzero;stroke:none"
         d="m 6978.21,301.391 h 97.94 V 256 H 6929 v 318.68 h 49.21 V 301.391" /><path
         id="path242"
         style="fill:#1a3c5c;fill-opacity:1;fill-rule:nonzero;stroke:none"
         d="m 7165.51,256 h -49.21 v 318.68 h 49.21 V 256" /><path
         id="path244"
         style="fill:#1a3c5c;fill-opacity:1;fill-rule:nonzero;stroke:none"
         d="m 7455.51,256 h -46.82 V 490.59 L 7353.27,256 h -27.72 l -54.94,234.59 V 256 h -46.81 v 318.68 h 72.14 l 43.95,-200.18 44.43,200.18 h 71.19 V 256" /><path
         id="path246"
         style="fill:#1a3c5c;fill-opacity:1;fill-rule:nonzero;stroke:none"
         d="m 7563.02,256 h -49.2 v 318.68 h 49.2 V 256" /><path
         id="path248"
         style="fill:#1a3c5c;fill-opacity:1;fill-rule:nonzero;stroke:none"
         d="m 7717.81,256 h -49.21 v 273.289 h -61.63 v 45.391 h 172.95 v -45.391 h -62.11 V 256" /><path
         id="path250"
         style="fill:#1a3c5c;fill-opacity:1;fill-rule:nonzero;stroke:none"
         d="m 7968.17,529.289 h -95.07 v -84.09 h 70.23 v -45.39 h -70.23 v -98.418 h 95.07 V 256 h -144.28 v 318.68 h 144.28 v -45.391" /><path
         id="path252"
         style="fill:#1a3c5c;fill-opacity:1;fill-rule:nonzero;stroke:none"
         d="m 8085.23,301.391 c 34.87,0 47.3,18.168 47.3,67.839 v 92.2 c 0,50.179 -12.43,67.859 -47.3,67.859 h -24.36 V 301.391 Z m -73.57,273.289 h 77.87 c 62.59,0 92.21,-32.02 92.21,-99.871 V 355.871 C 8181.74,288.02 8152.12,256 8089.53,256 h -77.87 v 318.68" /><path
         id="path254"
         style="fill:#1a3c5c;fill-opacity:1;fill-rule:nonzero;stroke:none"
         d="m 8408.69,256 h -49.21 v 273.289 h -61.63 v 45.391 h 172.95 v -45.391 h -62.11 V 256" /><path
         id="path256"
         style="fill:#1a3c5c;fill-opacity:1;fill-rule:nonzero;stroke:none"
         d="m 8563.98,256 h -49.21 v 318.68 h 49.21 V 256" /><path
         id="path258"
         style="fill:#1a3c5c;fill-opacity:1;fill-rule:nonzero;stroke:none"
         d="m 8853.98,256 h -46.81 V 490.59 L 8751.75,256 h -27.72 l -54.94,234.59 V 256 h -46.82 v 318.68 h 72.14 l 43.96,-200.18 44.43,200.18 h 71.18 V 256" /><path
         id="path260"
         style="fill:#1a3c5c;fill-opacity:1;fill-rule:nonzero;stroke:none"
         d="m 9056.57,529.289 h -95.07 v -84.09 h 70.23 v -45.39 h -70.23 v -98.418 h 95.07 V 256 h -144.28 v 318.68 h 144.28 v -45.391" /><path
         id="path262"
         style="fill:#1a3c5c;fill-opacity:1;fill-rule:nonzero;stroke:none"
         d="m 9224.27,346.789 c 0,-34.891 10.51,-51.609 32.5,-51.609 23.4,0 32.49,16.718 32.49,58.769 0,40.121 -8.61,55.903 -31.54,55.903 -13.38,0 -21.98,-5.25 -33.45,-19.59 z m 62.59,145.231 v 7.64 c 0,23.879 -9.55,35.84 -29.62,35.84 -11.94,0 -21.98,-5.258 -26.28,-14.809 -5.25,-10.531 -6.69,-22.461 -6.69,-52.562 V 428.48 c 13.86,18.149 27.24,25.321 48.26,25.321 43.47,0 64.5,-31.059 64.5,-96.039 0,-70.211 -27.24,-106.524 -79.79,-106.524 -25.32,0 -45.87,9.551 -58.77,26.742 -14.32,19.122 -20.53,44.43 -20.53,85.04 v 113.71 c 0,35.84 5.73,57.34 19.11,75.02 13.85,17.672 35.35,27.691 60.67,27.691 45.86,0 75.48,-31.05 75.48,-79.781 v -7.64 h -46.34" /><path
         id="path264"
         style="fill:#1a3c5c;fill-opacity:1;fill-rule:nonzero;stroke:none"
         d="m 9477.98,256 h -49.21 v 273.289 h -61.63 v 45.391 h 172.95 v -45.391 h -62.11 V 256" /><path
         id="path266"
         style="fill:#1a3c5c;fill-opacity:1;fill-rule:nonzero;stroke:none"
         d="M 9633.27,396.469 V 256 h -49.21 v 318.68 h 49.21 V 441.859 h 70.22 V 574.68 h 49.21 V 256 h -49.21 v 140.469 h -70.22" /><path
         id="path268"
         style="fill:#1a3c5c;fill-opacity:1;fill-rule:nonzero;stroke:none"
         d="m 9940.49,357.289 h -68.32 v 39.652 h 68.32 v -39.652" /><path
         id="path270"
         style="fill:#1a3c5c;fill-opacity:1;fill-rule:nonzero;stroke:none"
         d="m 10119.7,256 h -46.4 v 243.66 h -45.9 v 29.141 c 25.8,10.988 53.6,31.051 65,45.879 h 27.3 V 256" /><path
         id="path272"
         style="fill:#1a3c5c;fill-opacity:1;fill-rule:nonzero;stroke:none"
         d="m 10364.7,256 h -155.2 v 43.012 c 101.3,132.808 113.7,153.828 113.7,196.347 0,26.289 -10.5,40.141 -30.6,40.141 -12.9,0 -23.4,-6.699 -29.1,-18.641 -3.4,-7.16 -4.3,-14.8 -4.3,-34.879 h -46.4 c 0,34.879 3.4,50.18 13.4,64.489 13.8,21.043 38.7,32.972 67.4,32.972 48.2,0 77.4,-31.519 77.4,-84.55 0,-25.801 -6.3,-48.731 -20.1,-73.102 -15.3,-25.809 -15.3,-25.809 -71.2,-100.809 -5.2,-7.628 -11,-14.8 -16.2,-21.968 h 101.2 V 256" /><path
         id="path274"
         style="fill:#1a3c5c;fill-opacity:1;fill-rule:nonzero;stroke:none"
         d="m 10513.3,256 h -49.2 v 273.289 h -61.6 v 45.391 h 172.9 v -45.391 h -62.1 V 256" /><path
         id="path276"
         style="fill:#1a3c5c;fill-opacity:1;fill-rule:nonzero;stroke:none"
         d="M 10668.6,396.469 V 256 h -49.2 v 318.68 h 49.2 V 441.859 h 70.3 V 574.68 h 49.2 V 256 h -49.2 v 140.469 h -70.3" /><path
         id="path278"
         style="fill:#1a3c5c;fill-opacity:1;fill-rule:nonzero;stroke:none"
         d="M 11051.3,574.68 V 333.879 c 0,-33.438 -3.3,-47.289 -13.8,-60.199 -10.1,-12.418 -25.3,-17.68 -49.7,-17.68 h -29.6 v 46.352 h 11.4 c 23.9,0 32.5,9.078 32.5,35.347 V 574.68 h 49.2" /><path
         id="path280"
         style="fill:#1a3c5c;fill-opacity:1;fill-rule:nonzero;stroke:none"
         d="m 11190.4,513.52 -25.8,-142.848 h 52 z M 11156.9,325.281 11144,256 h -48.2 l 61.1,318.68 h 67.4 L 11288.8,256 h -50.6 l -13.4,69.281 h -67.9" /><path
         id="path282"
         style="fill:#1a3c5c;fill-opacity:1;fill-rule:nonzero;stroke:none"
         d="m 11509.1,256 h -44 l -86,212.129 V 256 h -46.8 v 318.68 h 49.7 l 80.2,-198.289 V 574.68 h 46.9 V 256" /><path
         id="path284"
         style="fill:#1a3c5c;fill-opacity:1;fill-rule:nonzero;stroke:none"
         d="M 11735.5,574.68 V 358.719 c 0,-40.117 -4.8,-60.66 -18.1,-78.828 -13.9,-18.629 -37.3,-28.653 -66,-28.653 -29.1,0 -52.5,10.024 -66.4,28.653 -13.4,18.168 -18.1,38.711 -18.1,78.828 V 574.68 h 49.2 V 350.609 c 0,-37.75 10,-53.039 35.3,-53.039 24.9,0 34.9,15.289 34.9,53.039 V 574.68 h 49.2" /><path
         id="path286"
         style="fill:#1a3c5c;fill-opacity:1;fill-rule:nonzero;stroke:none"
         d="m 11872.2,513.52 -25.8,-142.848 h 52.1 z M 11838.7,325.281 11825.8,256 h -48.2 l 61.1,318.68 h 67.4 L 11970.6,256 h -50.6 l -13.4,69.281 h -67.9" /><path
         id="path288"
         style="fill:#1a3c5c;fill-opacity:1;fill-rule:nonzero;stroke:none"
         d="m 12081.5,432.289 c 21,0 30.5,2.41 38.2,10.043 8.1,8.129 11.9,21.02 11.9,38.688 0,17.21 -3.8,30.101 -11.9,38.23 -7.7,7.648 -17.2,10.039 -38.2,10.039 h -18.2 v -97 z M 12063.3,256 h -49.2 v 318.68 h 76.9 c 29.2,0 47.8,-5.75 63.1,-19.121 19.1,-16.239 28.6,-40.61 28.6,-72.129 0,-40.141 -14.3,-67.86 -43,-82.66 L 12186.6,256 h -51.6 l -42.1,130.922 h -29.6 V 256" /><path
         id="path290"
         style="fill:#1a3c5c;fill-opacity:1;fill-rule:nonzero;stroke:none"
         d="m 12334.7,256 h -49.2 v 124.219 l -71.7,194.461 h 54.5 l 42.5,-134.731 44,134.731 h 53.5 l -73.6,-194.461 V 256" /><path
         id="path292"
         style="fill:#1a3c5c;fill-opacity:1;fill-rule:nonzero;stroke:none"
         d="m 12578.4,358.25 c 0,-25.328 1.4,-33.93 6.2,-43.48 5.7,-10.5 17.7,-17.2 31.5,-17.2 13.9,0 25.8,6.7 31.5,17.2 5.3,10.039 6.2,17.679 6.2,43.48 v 114.18 c 0,25.8 -0.9,33.441 -6.2,43.48 -5.7,10.5 -17.6,17.199 -31.5,17.199 -13.8,0 -25.8,-6.699 -31.5,-17.199 -4.8,-9.551 -6.2,-18.168 -6.2,-43.48 z m 124.7,-0.961 c 0,-35.84 -5.3,-57.32 -18.2,-75.48 -14.3,-20.059 -38.2,-30.571 -68.8,-30.571 -30.6,0 -54.5,10.512 -68.8,30.571 -12.9,18.16 -18.1,39.64 -18.1,75.48 v 116.102 c 0,35.839 5.2,57.32 18.1,75.488 14.3,20.051 38.2,30.562 68.8,30.562 30.6,0 54.5,-10.511 68.8,-30.562 12.9,-18.168 18.2,-39.649 18.2,-75.488 V 357.289" /><path
         id="path294"
         style="fill:#1a3c5c;fill-opacity:1;fill-rule:nonzero;stroke:none"
         d="m 12934.8,256 h -44 l -86,212.129 V 256 h -46.8 v 318.68 h 49.7 L 12888,376.391 V 574.68 h 46.8 V 256" /><path
         id="path296"
         style="fill:#1a3c5c;fill-opacity:1;fill-rule:nonzero;stroke:none"
         d="m 13041.8,301.391 h 98 V 256 h -147.2 v 318.68 h 49.2 V 301.391" /><path
         id="path298"
         style="fill:#1a3c5c;fill-opacity:1;fill-rule:nonzero;stroke:none"
         d="m 13262.6,256 h -49.3 v 124.219 l -71.6,194.461 h 54.4 l 42.6,-134.731 43.9,134.731 h 53.5 l -73.5,-194.461 V 256" /><path
         id="path300"
         style="fill:#97d42f;fill-opacity:1;fill-rule:nonzero;stroke:none"
         d="M 2517.48,1293.82 C 2517.48,618.02 1969.63,70.1719 1293.83,70.1719 618.023,70.1719 70.1758,618.02 70.1758,1293.82 c 0,675.81 547.8472,1223.65 1223.6542,1223.65 675.8,0 1223.65,-547.84 1223.65,-1223.65" /><path
         id="path302"
         style="fill:none;stroke:#97d42f;stroke-width:37.91650009;stroke-linecap:butt;stroke-linejoin:miter;stroke-miterlimit:10;stroke-dasharray:none;stroke-opacity:1"
         d="M 2568.7,1293.82 C 2568.7,589.73 1997.92,18.9492 1293.83,18.9492 589.738,18.9492 18.957,589.73 18.957,1293.82 c 0,704.09 570.781,1274.87 1274.873,1274.87 704.09,0 1274.87,-570.78 1274.87,-1274.87 z" /><path
         id="path304"
         style="fill:#1a3c5c;fill-opacity:1;fill-rule:nonzero;stroke:none"
         d="m 675.879,1742.28 c 10.457,-57.54 36.609,-79.34 74.098,-79.34 37.484,0 57.531,21.8 57.531,54.06 0,34.87 -22.664,68 -72.356,104.61 l -57.527,41.84 c -68.867,50.56 -98.508,109.84 -98.508,175.22 0,96.75 66.25,164.75 169.113,164.75 95.02,0 149.942,-57.53 163.887,-155.17 l -108.965,-14.82 c -6.101,41.85 -23.535,66.26 -58.41,66.26 -33.125,0 -52.304,-23.55 -52.304,-55.8 0,-39.22 27.902,-67.12 73.234,-100.25 l 56.66,-40.97 c 65.383,-47.94 98.508,-108.96 98.508,-179.57 0,-100.26 -67.129,-163.89 -171.742,-163.89 -103.731,0 -166.493,62.77 -181.317,168.25 l 108.098,14.82" /><path
         id="path306"
         style="fill:#1a3c5c;fill-opacity:1;fill-rule:nonzero;stroke:none"
         d="m 1097.37,1797.19 h 77.59 l -26.15,163.89 c -4.36,29.63 -8.72,69.74 -10.46,91.53 h -5.24 c -0.87,-21.79 -6.1,-61.9 -10.46,-91.53 z m -35.74,-227.52 H 947.438 l 112.452,623.29 h 151.68 l 112.45,-623.29 h -112.45 l -20.92,127.28 h -108.97 l -20.05,-127.28" /><path
         id="path308"
         style="fill:#1a3c5c;fill-opacity:1;fill-rule:nonzero;stroke:none"
         d="m 1562.8,2192.96 h 111.58 l -126.4,-623.29 h -122.91 l -126.41,623.29 h 114.2 l 61.02,-327.77 c 4.36,-28.77 9.59,-69.74 11.33,-98.51 h 4.36 c 1.75,28.77 6.98,69.74 11.34,98.51 l 61.89,327.77" /><path
         id="path310"
         style="fill:#1a3c5c;fill-opacity:1;fill-rule:nonzero;stroke:none"
         d="m 1835.05,1845.14 v -177.83 h 174.34 v -97.64 h -285.93 l 0.87,63.63 v 496.03 l -0.87,63.63 h 282.45 v -97.63 h -170.86 v -150.81 h 134.24 v -99.38 h -134.24" /><path
         id="path312"
         style="fill:#1a3c5c;fill-opacity:1;fill-rule:nonzero;stroke:none"
         d="m 706.82,760.59 v -60.531 c 0,-64.09 0,-118.387 55.196,-118.387 47.175,0 50.742,40.949 50.742,101.469 0,66.769 0,105.05 -49.856,105.05 -19.578,0 -40.945,-8.019 -56.082,-27.601 z m 0,91.691 c 28.485,23.149 60.535,35.61 95.254,35.61 28.485,0 54.305,-8.012 77.449,-29.379 30.266,-28.481 46.29,-66.75 46.29,-175.371 -0.887,-66.75 -10.684,-128.18 -53.418,-164.672 -26.7,-23.16 -66.758,-36.508 -113.047,-36.508 -50.743,0 -87.246,16.027 -111.278,36.508 -33.828,29.371 -55.195,73.871 -55.195,205.633 V 897.68 c 0,123.74 17.801,176.26 55.195,207.42 27.598,23.15 63.203,34.72 106.825,34.72 48.066,0 84.57,-14.25 109.492,-36.5 28.488,-25.81 49.855,-67.66 49.855,-152.23 v -1.781 H 805.637 v 1.781 c 0,36.512 0,89.03 -49.852,89.03 -48.965,0 -48.965,-52.518 -48.965,-118.401 v -69.438" /><path
         id="path314"
         style="fill:#1a3c5c;fill-opacity:1;fill-rule:nonzero;stroke:none"
         d="m 1203.54,699.172 v 223.437 c 0,69.442 0,115.731 -53.42,115.731 -53.41,0 -53.41,-46.289 -53.41,-115.731 V 699.172 c 0,-69.442 0,-115.723 53.41,-115.723 53.42,0 53.42,46.281 53.42,115.723 z M 1038.85,518.469 c -36.5,31.152 -53.416,82.781 -53.416,210.07 V 893.23 c 0,127.31 16.916,178.05 53.416,210.09 24.92,22.25 62.31,36.5 111.27,36.5 48.96,0 86.35,-14.25 111.28,-36.5 35.6,-32.04 53.41,-82.78 53.41,-210.09 V 728.539 c 0,-127.289 -17.81,-178.918 -53.41,-210.07 -24.93,-22.258 -62.32,-36.508 -111.28,-36.508 -48.96,0 -86.35,14.25 -111.27,36.508" /><path
         id="path316"
         style="fill:#1a3c5c;fill-opacity:1;fill-rule:nonzero;stroke:none"
         d="M 1917.37,626.172 V 696.5 c 0,29.379 0,60.531 -33.83,60.531 -33.83,0 -33.83,-31.152 -33.83,-60.531 v -70.328 c 0,-29.371 0,-60.531 33.83,-60.531 33.83,0 33.83,31.16 33.83,60.531 z M 1790.95,514.898 c -29.38,23.153 -40.06,60.543 -40.06,129.973 v 32.938 c 0,69.429 10.68,105.929 40.06,129.961 21.37,17.8 53.42,28.492 92.59,28.492 38.27,0 71.21,-10.692 92.58,-28.492 28.48,-24.032 40.05,-60.532 40.05,-129.961 v -32.938 c 0,-69.43 -11.57,-106.82 -40.05,-129.973 -21.37,-17.796 -54.31,-28.488 -92.58,-28.488 -39.17,0 -71.22,10.692 -92.59,28.488 z m -11.57,614.242 h 87.24 L 1608.46,492.641 h -87.24 z M 1537.25,925.281 v 70.321 c 0,29.378 0,60.538 -33.83,60.538 -33.83,0 -33.83,-31.16 -33.83,-60.538 v -70.321 c 0,-29.371 0,-60.543 33.83,-60.543 33.83,0 33.83,31.172 33.83,60.543 z M 1410.84,814 c -29.38,23.148 -40.06,60.539 -40.06,129.969 v 32.941 c 0,69.44 10.68,105.94 40.06,129.97 21.36,17.81 53.41,28.49 92.58,28.49 38.28,0 71.21,-10.68 92.58,-28.49 28.49,-24.03 40.06,-60.53 40.06,-129.97 v -32.941 c 0,-69.43 -11.57,-106.821 -40.06,-129.969 -21.37,-17.801 -54.3,-28.48 -92.58,-28.48 -39.17,0 -71.22,10.679 -92.58,28.48" /><path
         id="path318"
         style="fill:#1a3c5c;fill-opacity:1;fill-rule:nonzero;stroke:none"
         d="m 1115.08,1460.71 -0.33,-24.03 v -152.05 c 0,-40.49 -23.7,-63.2 -61.88,-63.2 -38.18,0 -61.55,22.71 -61.55,63.2 v 152.05 l -0.32,24.03 h 42.45 l -0.32,-24.03 v -147.45 c 0,-18.43 4.93,-28.64 19.74,-28.64 15.14,0 20.08,10.21 20.08,28.64 v 147.45 l -0.33,24.03 h 42.46" /><path
         id="path320"
         style="fill:#1a3c5c;fill-opacity:1;fill-rule:nonzero;stroke:none"
         d="m 1200,1356.71 c 22.71,0 27.65,14.47 27.65,33.24 v 0.65 c 0,18.76 -4.94,33.25 -27.65,33.25 h -11.85 v -67.14 z m -53.65,-107.31 v 187.28 l -0.33,24.03 h 59.25 c 52.65,0 65.49,-31.27 65.49,-70.11 v -0.65 c 0,-38.84 -12.84,-70.11 -65.49,-70.11 h -17.12 v -70.44 l 0.33,-24.02 h -42.46 l 0.33,24.02" /><path
         id="path322"
         style="fill:#1a3c5c;fill-opacity:1;fill-rule:nonzero;stroke:none"
         d="M 1409.3,1423.85 V 1249.4 l 0.32,-24.02 h -42.13 l 0.33,24.02 v 174.45 h -41.47 v 36.86 h 124.75 v -36.86 h -41.8" /><path
         id="path324"
         style="fill:#1a3c5c;fill-opacity:1;fill-rule:nonzero;stroke:none"
         d="m 1554.55,1303.39 v 79.31 c 0,24.36 0,42.8 -20.07,42.8 -19.75,0 -19.75,-18.44 -19.75,-42.8 v -79.31 c 0,-24.36 0,-42.8 19.75,-42.8 20.07,0 20.07,18.44 20.07,42.8 z m -61.87,-68.47 c -13.17,11.52 -20.41,29.95 -20.41,77.68 v 60.88 c 0,47.73 7.24,66.17 20.41,77.68 10.19,8.89 24.68,13.5 41.8,13.5 17.44,0 31.92,-4.61 42.12,-13.5 13.17,-11.51 20.41,-29.95 20.41,-77.68 v -60.88 c 0,-47.73 -7.24,-66.16 -20.41,-77.68 -10.2,-8.89 -24.68,-13.49 -42.12,-13.49 -17.12,0 -31.61,4.6 -41.8,13.49" /></g></g></svg>